<?xml version="1.0" encoding="UTF-8" standalone="no"?>
<!-- Created with Inkscape (http://www.inkscape.org/) -->

<svg
   width="88.088829mm"
   height="91.232849mm"
   viewBox="0 0 88.088829 91.232849"
   version="1.1"
   id="svg1"
   xml:space="preserve"
   inkscape:version="1.4.3 (0d15f75, 2025-12-25)"
   sodipodi:docname="fmc-logo.svg"
   xmlns:inkscape="http://www.inkscape.org/namespaces/inkscape"
   xmlns:sodipodi="http://sodipodi.sourceforge.net/DTD/sodipodi-0.dtd"
   xmlns="http://www.w3.org/2000/svg"
   xmlns:svg="http://www.w3.org/2000/svg"><sodipodi:namedview
     id="namedview1"
     pagecolor="#ffffff"
     bordercolor="#000000"
     borderopacity="0.25"
     inkscape:showpageshadow="true"
     inkscape:pageopacity="0.0"
     inkscape:pagecheckerboard="0"
     inkscape:deskcolor="#d1d1d1"
     inkscape:document-units="mm"
     showguides="false"
     showgrid="true"
     inkscape:zoom="0.48"
     inkscape:cx="-95.833333"
     inkscape:cy="488.54167"
     inkscape:window-width="1920"
     inkscape:window-height="991"
     inkscape:window-x="-9"
     inkscape:window-y="-9"
     inkscape:window-maximized="1"
     inkscape:current-layer="layer1"
     showborder="true"
     borderlayer="true"><inkscape:grid
       id="grid31"
       units="mm"
       originx="-26.022643"
       originy="-22.858197"
       spacingx="0.99999998"
       spacingy="1"
       empcolor="#0099e5"
       empopacity="0.30196078"
       color="#0099e5"
       opacity="0.14901961"
       empspacing="5"
       enabled="true"
       visible="true" /></sodipodi:namedview><defs
     id="defs1" /><g
     inkscape:label="Layer 1"
     inkscape:groupmode="layer"
     id="layer1"
     transform="translate(-26.022642,-22.858198)"><g
       id="g39"
       style="fill:#b87333;fill-opacity:1"><text
         xml:space="preserve"
         style="font-style:normal;font-variant:normal;font-weight:600;font-stretch:normal;font-size:9.18159px;font-family:'Segoe UI';-inkscape-font-specification:'Segoe UI, Semi-Bold';font-variant-ligatures:normal;font-variant-caps:normal;font-variant-numeric:normal;font-variant-east-asian:normal;writing-mode:lr-tb;direction:ltr;fill:#b87333;fill-opacity:1;stroke-width:0.763108"
         x="41.749966"
         y="62.901367"
         id="text30"
         transform="scale(0.94078483,1.0629423)"><tspan
           sodipodi:role="line"
           id="tspan30"
           x="41.749966"
           y="62.901367"
           style="font-style:normal;font-variant:normal;font-weight:600;font-stretch:normal;font-size:9.18159px;font-family:'Segoe UI';-inkscape-font-specification:'Segoe UI, Semi-Bold';font-variant-ligatures:normal;font-variant-caps:normal;font-variant-numeric:normal;font-variant-east-asian:normal;fill:#b87333;fill-opacity:1;stroke-width:0.763108">FRESNO MUSIC</tspan></text><text
         xml:space="preserve"
         style="font-style:normal;font-variant:normal;font-weight:600;font-stretch:normal;font-size:9.18193px;font-family:'Segoe UI';-inkscape-font-specification:'Segoe UI, Semi-Bold';font-variant-ligatures:normal;font-variant-caps:normal;font-variant-numeric:normal;font-variant-east-asian:normal;writing-mode:lr-tb;direction:ltr;fill:#b87333;fill-opacity:1;stroke-width:0.791835"
         x="48.72123"
         y="101.55934"
         id="text31"
         transform="scale(0.96841354,1.0326167)"><tspan
           sodipodi:role="line"
           id="tspan31"
           x="48.72123"
           y="101.55934"
           style="font-style:normal;font-variant:normal;font-weight:600;font-stretch:normal;font-size:9.18193px;font-family:'Segoe UI';-inkscape-font-specification:'Segoe UI, Semi-Bold';font-variant-ligatures:normal;font-variant-caps:normal;font-variant-numeric:normal;font-variant-east-asian:normal;fill:#b87333;fill-opacity:1;stroke-width:0.791835">CALENDAR</tspan></text></g><g
       id="g37"
       style="fill:#b87333;fill-opacity:1"><path
         d="m 48.155536,90.582553 c -0.397903,-0.233593 -0.901733,-0.62477 -1.119612,-0.869248 -0.217881,-0.24449 -0.48183,-0.584631 -0.586556,-0.755876 -0.138249,-0.226037 0.556169,-1.626364 2.534743,-5.111426 1.498832,-2.640063 2.805796,-4.819906 2.904346,-4.844126 0.0985,-0.02426 0.468599,0.339342 0.822326,0.807857 0.353726,0.468545 0.965743,1.061233 1.360044,1.317143 0.463765,0.300949 1.033102,0.46524 1.612391,0.46524 0.61099,0 1.15109,-0.167033 1.699993,-0.525754 0.442476,-0.289155 0.982739,-0.726723 1.200588,-0.972386 0.217849,-0.245633 0.844917,-1.226766 1.393495,-2.180266 0.548566,-0.953499 1.336974,-2.096053 1.752004,-2.539016 0.41503,-0.442943 1.062421,-0.929447 1.438648,-1.081115 0.376227,-0.151679 1.073565,-0.275782 1.549643,-0.275782 0.47609,0 1.220525,0.176432 1.6543,0.392074 0.433785,0.215635 1.138348,0.745343 1.565691,1.177082 0.427365,0.43177 1.222611,1.568042 1.76726,2.525083 0.544628,0.95701 1.247227,2.001576 1.561326,2.321263 0.314109,0.319677 0.829409,0.71119 1.145127,0.870018 0.315716,0.158847 0.91834,0.288799 1.339161,0.288799 0.420821,0 1.0364,-0.13509 1.367962,-0.3002 0.331562,-0.16512 0.975279,-0.707689 1.430507,-1.205701 0.455197,-0.498022 1.159689,-1.523869 1.565509,-2.279685 0.40582,-0.755805 1.116235,-1.791919 1.578687,-2.302427 0.462484,-0.510518 1.152941,-1.053787 1.534369,-1.20726 0.381416,-0.153483 1.034456,-0.279046 1.451165,-0.279046 0.41673,0 1.113324,0.142664 1.548015,0.317064 0.434691,0.17439 1.155781,0.658004 1.602389,1.074734 0.446628,0.41672 1.254982,1.537815 1.796333,2.491315 0.541342,0.953499 1.300949,2.071212 1.688005,2.483779 0.387054,0.412588 0.984773,0.862247 1.328252,0.99924 0.343459,0.137013 1.107758,0.216866 1.698445,0.177468 0.590678,-0.03936 1.0739,-0.06054 1.073829,-0.04695 -6e-5,0.01361 -0.965622,1.717747 -2.145663,3.787164 -1.180032,2.069417 -2.399701,4.027521 -2.71034,4.351341 -0.310659,0.323829 -0.947477,0.759395 -1.41515,0.967888 -0.467653,0.208512 -1.212088,0.381137 -1.654269,0.383622 -0.442211,0.003 -1.12002,-0.122664 -1.506251,-0.278069 -0.386221,-0.155405 -1.04048,-0.617934 -1.453842,-1.027829 -0.413381,-0.409895 -1.208729,-1.574187 -1.767442,-2.587302 -0.558702,-1.013125 -1.378697,-2.157741 -1.822212,-2.543612 -0.443514,-0.385852 -1.170527,-0.795037 -1.615587,-0.909318 -0.502406,-0.128966 -1.122422,-0.138947 -1.635311,-0.02624 -0.522677,0.114814 -1.166343,0.503023 -1.75241,1.056933 -0.509469,0.481494 -1.317191,1.598979 -1.794919,2.483287 -0.477748,0.884308 -1.162833,1.93051 -1.522412,2.324883 -0.359578,0.394402 -1.017756,0.895875 -1.462593,1.114438 -0.444858,0.218542 -1.198349,0.39736 -1.674429,0.39736 -0.476079,0 -1.181608,-0.12715 -1.567849,-0.282557 -0.38623,-0.155405 -1.047401,-0.624827 -1.469269,-1.043125 -0.421869,-0.418318 -1.131123,-1.454363 -1.576133,-2.302338 -0.445,-0.847966 -1.16957,-1.93765 -1.610164,-2.421461 -0.476038,-0.522787 -1.190431,-1.022909 -1.760746,-1.232645 -0.814774,-0.299668 -1.090162,-0.315299 -1.823749,-0.103639 -0.475234,0.137092 -1.269178,0.608901 -1.764317,1.0484 -0.49514,0.439521 -1.307259,1.527322 -1.804698,2.41736 -0.497441,0.890017 -1.192326,1.954554 -1.54419,2.365632 -0.351854,0.41108 -1.00932,0.928973 -1.461016,1.150889 -0.451706,0.221915 -1.135977,0.403139 -1.52062,0.402725 -0.384643,-4.24e-4 -1.024901,-0.191886 -1.422804,-0.425496 z"
         style="fill:#b87333;fill-opacity:1;stroke-width:0.985545"
         id="path1-7" /></g><g
       id="g40"
       style="fill:#b87333;fill-opacity:1"><path
         d="m 48.366416,41.762611 c -0.459976,-0.21423 -1.135526,-0.72858 -1.501217,-1.14295 -0.365671,-0.4144 -0.763383,-1.10625 -0.883735,-1.53753 -0.128732,-0.46122 -0.218851,-3.17724 -0.218851,-6.59618 0,-3.46067 0.08949,-6.13297 0.221358,-6.60519 0.12174,-0.43622 0.549665,-1.15466 0.950942,-1.59659 0.401268,-0.44191 1.144415,-0.96109 1.651423,-1.15373 0.611599,-0.23241 1.273726,-0.31663 1.967594,-0.2503 0.65176,0.0622 1.413484,0.32658 2.021727,0.70141 0.630127,0.38828 1.148031,0.92558 1.461576,1.51625 0.478373,0.90116 0.485624,1.01153 0.485624,7.38815 0,6.37666 -0.007,6.48699 -0.485624,7.38818 -0.315922,0.59516 -0.831899,1.12821 -1.476587,1.52549 -0.720196,0.4438 -1.314296,0.63001 -2.17444,0.68157 -0.841447,0.0504 -1.42518,-0.0416 -2.01979,-0.31858 z"
         style="fill:#b87333;fill-opacity:1;stroke-width:0.983166"
         id="path1-2" /><path
         style="fill:#b87333;fill-opacity:1;stroke-width:0.975851"
         d="m 34.978947,113.80001 c -0.713682,-0.15231 -1.948807,-0.61276 -2.744722,-1.02325 -0.937404,-0.48343 -1.932602,-1.23914 -2.82545,-2.14548 -0.934025,-0.94816 -1.613346,-1.88376 -2.107389,-2.90243 -0.342088,-0.70535 -0.701425,-1.66256 -0.872899,-2.30522 -0.02951,-0.11062 -0.05347,-0.21193 -0.07082,-0.30104 -0.01152,-0.0592 -0.01338,-0.0947 -0.01996,-0.17978 -0.129757,-1.68091 -0.229569,-13.174584 -0.28611,-33.035209 -0.0637,-22.377035 -0.02351,-32.44092 0.132611,-33.197107 0.123215,-0.596823 0.58165,-1.826028 1.018746,-2.731583 0.503797,-1.043707 1.182444,-2.034645 1.853874,-2.706968 0.582537,-0.583319 1.496222,-1.356701 2.030411,-1.718625 0.534191,-0.361944 1.725662,-0.916436 2.647717,-1.232221 1.59702,-0.546985 1.855987,-0.574312 5.464956,-0.576927 l 3.788495,-0.0029 0.07949,4.76104 c 0.07871,4.713183 0.08516,4.771566 0.642225,5.803761 0.309503,0.573473 1.084579,1.510262 1.722397,2.081713 0.733926,0.657604 1.562496,1.172862 2.256935,1.40354 0.65228,0.216678 1.689642,0.361815 2.557966,0.357869 1.1406,-0.0049 1.744487,-0.131956 2.755702,-0.578563 0.8243,-0.364045 1.641287,-0.936858 2.247714,-1.575984 0.52399,-0.552234 1.155796,-1.43877 1.404009,-1.970059 0.41423,-0.886624 0.455643,-1.348621 0.504207,-5.624638 l 0.05292,-4.658679 h 12.681073 12.681076 l 0.07939,4.658679 c 0.07867,4.615694 0.0848,4.669332 0.660263,5.814197 0.319455,0.635536 0.992416,1.527457 1.495458,1.982026 0.503033,0.454578 1.303454,1.021185 1.77869,1.259133 0.475237,0.237959 1.376071,0.525617 2.001852,0.639255 0.773834,0.14055 1.511794,0.138626 2.307059,-0.0059 0.643108,-0.116913 1.591801,-0.420258 2.108207,-0.674079 0.516406,-0.253852 1.297777,-0.804753 1.736361,-1.224221 0.438605,-0.419488 1.057102,-1.249654 1.374459,-1.844821 0.57639,-1.080928 0.57707,-1.087361 0.629399,-5.843192 l 0.05228,-4.761049 h 3.751771 c 3.47415,0 3.87024,0.03897 5.35262,0.525805 0.88047,0.289197 2.04295,0.803094 2.58331,1.141994 0.54036,0.338889 1.54688,1.207391 2.23665,1.929996 0.75749,0.793487 1.54424,1.903065 1.98653,2.801626 0.42358,0.860521 0.82842,2.091421 0.96031,2.919573 0.15725,0.987634 0.23856,11.468472 0.26214,33.786552 0,0 0.30803,20.898104 0.11953,31.343836 -0.004,0.22591 -7.1e-4,0.45289 -0.0271,0.67724 -0.006,0.0503 -0.0186,0.0994 -0.0296,0.14879 -0.0115,0.0524 -0.0243,0.10452 -0.038,0.15638 -0.0128,0.0481 -0.0254,0.0965 -0.0413,0.14367 -0.14329,0.42435 -0.48747,1.25249 -0.48747,1.25249 -0.29315,0.75324 -0.83994,1.83242 -1.2092,2.40049 -0.36927,0.56805 -1.20462,1.51917 -1.85635,2.11354 -0.65172,0.59441 -1.7646,1.38465 -2.47302,1.75612 -0.70845,0.37144 -1.92241,0.80755 -2.69771,0.96913 -1.19276,0.24856 -6.602891,0.2918 -35.162083,0.28103 -27.550172,-0.0103 -33.990902,-0.0636 -35.050059,-0.28968 z m 70.723953,-4.0729 c 0.63486,-0.35505 1.66126,-0.97108 2.43593,-1.79598 0.8763,-0.93311 1.22268,-1.50352 1.54867,-2.55038 0.41242,-1.32439 0.41867,-1.78949 0.34944,-26.104867 l -0.0705,-24.75644 H 69.96038 29.954298 l 0.127153,25.238758 c 0,0 0.164885,16.402924 0.247532,24.604389 0.0015,0.15618 -0.02031,0.31426 0.0047,0.46854 0.0724,0.44624 0.27728,0.86171 0.415921,1.29258 0.226114,0.70271 0.974432,1.55155 1.504162,2.07074 0.52973,0.5192 1.405876,1.14828 1.946991,1.39793 0.541117,0.24968 1.361601,0.56985 1.837078,0.62224 1.451718,0.15999 26.170551,0.49931 67.242605,0.0274 l 1.18494,-0.0135 c 0,0 0.60264,-0.14629 1.2375,-0.50133 z"
         id="path32"
         sodipodi:nodetypes="cssssssssssssccsssscsssscccssssscsssscsssssssssssssssssscczsssccccssssssscz" /><path
         d="m 87.897453,41.850511 c -0.459976,-0.21423 -1.135526,-0.72858 -1.501217,-1.14295 -0.365671,-0.4144 -0.763383,-1.10625 -0.883735,-1.53753 -0.128732,-0.46122 -0.218851,-3.17724 -0.218851,-6.59618 0,-3.46067 0.08949,-6.13297 0.221358,-6.60519 0.12174,-0.43622 0.549665,-1.15466 0.950942,-1.59659 0.401268,-0.44191 1.144415,-0.96109 1.651423,-1.15373 0.611599,-0.23241 1.273726,-0.31663 1.967594,-0.2503 0.65176,0.0622 1.413484,0.32658 2.021727,0.70141 0.630127,0.38828 1.148031,0.92558 1.461576,1.51625 0.478373,0.90116 0.485624,1.01153 0.485624,7.38815 0,6.37666 -0.007,6.48699 -0.485624,7.38818 -0.315922,0.59516 -0.831899,1.12821 -1.476587,1.52549 -0.720196,0.4438 -1.314296,0.63001 -2.17444,0.68157 -0.841447,0.0504 -1.42518,-0.0416 -2.01979,-0.31858 z"
         style="fill:#b87333;fill-opacity:1;stroke-width:0.983166"
         id="path1-4" /></g></g></svg>
