<svg xmlns="http://www.w3.org/2000/svg" width="836" height="1254" viewBox="0 0 836 1254">
<g>
<path d="M 551.00 527.93 C551.00,535.12 550.83,541.00 550.63,541.00 C549.77,541.00 549.23,530.99 549.73,524.41 C550.23,517.80 550.12,517.26 548.16,516.75 C546.13,516.22 546.05,516.58 545.73,527.85 L 545.41 539.50 L 545.50 515.50 L 548.25 515.18 L 551.00 514.87 ZM 375.12 523.64 C375.33,524.11 375.25,528.33 374.94,533.00 C374.45,540.30 374.35,540.68 374.19,535.70 C374.08,532.51 373.29,528.53 372.43,526.86 C371.56,525.18 371.17,523.52 371.56,523.16 C371.95,522.80 372.49,523.11 372.76,523.86 C373.13,524.91 373.42,524.94 374.00,524.01 C374.41,523.34 374.92,523.17 375.12,523.64 Z" fill="rgb(220,126,69)"/>
<path d="M 617.50 815.49 C607.03,817.70 225.33,817.62 217.00,815.41 C197.16,810.14 181.92,793.34 178.98,773.50 C178.29,768.81 178.04,706.38 178.22,584.50 L 178.50 402.50 L 180.83 396.00 C188.85,373.66 204.80,358.96 225.82,354.54 C230.79,353.49 238.71,353.00 250.57,353.00 L 268.00 353.00 L 268.00 374.82 C268.00,398.35 268.76,403.30 273.65,411.66 C279.57,421.78 292.87,429.90 304.92,430.76 C320.50,431.88 335.25,423.30 342.55,408.90 C345.91,402.28 347.21,389.98 346.80,368.71 L 346.50 353.00 L 488.90 353.00 L 489.20 377.75 C489.50,402.23 489.53,402.56 492.19,408.24 C495.77,415.88 503.03,422.95 511.56,427.08 C517.93,430.17 519.28,430.45 528.00,430.47 C536.72,430.50 538.05,430.23 544.14,427.25 C552.94,422.95 560.76,414.57 564.35,405.59 C566.95,399.11 567.00,398.52 567.00,375.99 L 567.00 353.00 L 585.25 353.02 C606.59,353.04 614.07,354.29 624.98,359.65 C635.27,364.72 646.18,375.67 651.21,386.00 C652.21,388.04 653.06,389.51 653.78,391.04 C658.07,400.05 658.05,411.10 657.82,552.97 C657.80,565.07 657.78,578.12 657.76,592.19 L 657.50 778.50 L 655.06 784.00 C647.29,801.53 635.07,811.78 617.50,815.49 ZM 237.00 796.98 C246.62,797.27 335.05,797.39 433.49,797.25 C446.12,797.23 457.89,797.22 468.86,797.20 C609.43,797.03 618.73,797.02 624.66,792.54 C625.54,791.88 626.35,791.11 627.50,790.23 C631.12,787.48 633.47,784.53 636.00,779.56 L 639.50 772.70 L 639.77 626.85 L 640.03 481.00 L 196.97 481.00 L 197.50 773.50 L 200.44 779.31 C203.69,785.71 208.65,790.71 215.20,794.19 C219.06,796.23 221.29,796.52 237.00,796.98 ZM 411.71 676.43 C402.19,682.01 391.84,680.09 383.88,671.29 C381.97,669.17 377.50,662.33 373.96,656.09 C363.24,637.20 356.84,631.93 346.37,633.36 C337.56,634.57 332.71,639.37 324.03,655.50 C317.01,668.53 313.09,673.87 308.55,676.52 C300.28,681.37 290.50,678.57 284.31,669.58 L 280.98 664.75 L 288.66 650.13 C298.25,631.87 310.94,608.78 312.02,607.64 C312.46,607.16 313.59,608.28 314.53,610.14 C316.66,614.36 321.67,619.73 325.20,621.59 C328.62,623.38 335.10,623.40 339.33,621.64 C344.06,619.66 349.67,612.74 356.50,600.47 C366.34,582.77 373.80,577.16 386.01,578.27 C392.79,578.88 399.28,582.17 403.42,587.09 C404.86,588.80 409.18,595.52 413.01,602.01 C420.27,614.33 424.13,618.98 429.28,621.64 C433.22,623.68 440.79,623.68 444.73,621.64 C449.39,619.23 455.97,611.10 461.48,600.93 C467.71,589.43 473.02,583.37 479.46,580.37 C486.54,577.07 493.26,577.21 500.13,580.80 C506.52,584.14 510.99,589.66 518.11,603.00 C523.77,613.61 529.26,619.91 535.17,622.58 C538.55,624.10 540.02,624.21 545.31,623.31 C548.72,622.74 551.55,622.32 551.62,622.38 C551.93,622.68 528.59,664.04 525.72,668.27 C517.96,679.76 505.27,682.93 494.80,675.99 C489.46,672.45 485.64,667.77 480.53,658.50 C474.98,648.42 469.57,640.66 466.01,637.66 C459.87,632.49 449.33,631.78 442.42,636.05 C438.41,638.53 433.88,644.62 427.59,656.00 C420.89,668.12 416.70,673.50 411.71,676.43 ZM 316.78 415.45 C311.74,417.55 302.47,417.40 297.46,415.12 C291.99,412.64 285.51,405.07 284.12,399.55 C282.64,393.68 282.60,329.97 284.07,324.68 C285.53,319.43 293.37,311.51 298.50,310.11 C304.24,308.53 313.46,308.75 317.78,310.55 C322.50,312.52 326.59,316.40 329.34,321.50 C331.44,325.39 331.50,326.50 331.50,362.50 C331.50,398.53 331.44,399.61 329.34,403.50 C326.55,408.67 321.47,413.49 316.78,415.45 ZM 541.17 413.45 C537.54,416.00 535.76,416.52 529.69,416.80 C523.51,417.08 521.77,416.76 517.27,414.49 C511.63,411.63 507.00,406.52 505.16,401.10 C504.37,398.78 504.00,386.30 504.00,361.67 C504.00,327.16 504.09,325.45 506.09,321.31 C510.11,313.02 517.51,309.00 528.78,309.00 C539.53,309.00 548.51,314.96 550.94,323.72 C552.31,328.67 552.35,395.20 550.98,400.12 C549.54,405.32 546.11,409.98 541.17,413.45 ZM 420.97 539.72 C412.88,543.81 402.00,537.38 402.00,528.52 C402.00,524.72 404.46,519.49 407.12,517.63 C410.18,515.48 419.76,515.44 422.78,517.56 C425.81,519.68 428.00,524.19 428.00,528.30 C428.00,532.27 424.52,537.93 420.97,539.72 ZM 471.13 745.43 C466.90,747.62 454.45,747.61 453.61,745.42 C453.27,744.55 453.00,739.86 453.00,735.00 C453.00,730.14 453.27,725.45 453.61,724.58 C454.09,723.33 455.81,723.00 461.88,723.00 C470.36,723.00 473.00,724.16 475.51,729.01 C478.46,734.73 476.32,742.75 471.13,745.43 ZM 289.00 537.00 C289.00,540.21 288.64,541.00 287.17,541.00 C286.16,541.00 285.03,540.70 284.67,540.33 C284.30,539.97 284.00,534.34 284.00,527.83 L 284.00 516.00 L 291.89 516.00 C300.85,516.00 303.59,517.42 304.59,522.57 C305.05,524.97 304.60,526.33 302.50,528.82 L 299.83 531.99 L 302.94 535.92 C304.92,538.42 305.66,540.09 304.97,540.52 C302.84,541.83 299.17,539.95 297.14,536.51 C295.49,533.72 294.44,533.00 292.03,533.00 C289.16,533.00 289.00,533.21 289.00,537.00 ZM 524.00 743.00 C524.00,746.60 523.75,747.00 521.50,747.00 L 519.00 747.00 L 519.00 723.00 L 527.44 723.00 C535.03,723.00 536.04,723.22 537.44,725.22 C539.71,728.45 539.35,732.43 536.51,735.81 C534.58,738.10 534.30,739.00 535.26,739.81 C535.94,740.38 537.31,742.23 538.31,743.92 L 540.11 747.00 L 537.12 747.00 C534.77,747.00 533.53,746.15 531.31,743.02 C529.47,740.42 527.72,739.04 526.25,739.02 C524.29,739.00 524.00,739.51 524.00,743.00 ZM 454.64 533.18 C454.53,538.89 454.16,540.53 452.95,540.77 C452.10,540.93 451.09,540.75 450.70,540.37 C450.32,539.98 450.00,534.34 450.00,527.83 L 450.00 516.00 L 452.94 516.00 C455.43,516.00 456.38,516.84 459.19,521.47 C461.01,524.48 462.83,526.96 463.22,526.97 C463.62,526.99 464.69,525.54 465.59,523.75 C468.04,518.90 471.07,516.00 473.67,516.00 C475.99,516.00 476.00,516.08 476.00,528.57 C476.00,541.03 475.98,541.14 473.75,540.82 C471.69,540.53 471.48,539.90 471.21,533.25 C471.04,529.26 470.59,526.00 470.21,526.00 C469.82,526.00 468.22,528.03 466.66,530.50 C465.10,532.98 463.45,535.00 463.01,535.00 C462.57,535.00 460.75,532.73 458.98,529.96 C457.20,527.19 455.52,525.14 455.26,525.41 C454.99,525.67 454.71,529.17 454.64,533.18 ZM 423.79 739.25 C423.52,745.90 423.31,746.53 421.25,746.82 C419.02,747.14 419.00,747.01 419.00,735.07 L 419.00 723.00 L 421.89 723.00 C424.25,723.00 425.81,724.27 430.50,730.00 C433.65,733.85 436.66,737.00 437.20,737.00 C437.76,737.00 438.03,734.08 437.83,730.00 L 437.50 723.00 L 443.00 723.00 L 443.00 747.00 L 440.57 747.00 C438.76,747.00 436.55,745.07 431.93,739.50 C428.52,735.38 425.36,732.00 424.91,732.00 C424.46,732.00 423.96,735.26 423.79,739.25 ZM 375.12 523.64 C374.92,523.17 374.41,523.34 374.00,524.01 C373.42,524.94 373.13,524.91 372.76,523.86 C372.49,523.11 371.95,522.80 371.56,523.16 C371.17,523.52 371.56,525.18 372.43,526.86 C373.29,528.53 374.08,532.51 374.19,535.70 C374.35,540.68 374.45,540.30 374.94,533.00 C374.96,532.62 374.99,532.24 375.01,531.87 C375.00,532.24 375.00,532.62 375.00,533.00 C375.00,540.09 374.79,541.00 373.17,541.00 C372.16,541.00 371.03,540.70 370.67,540.33 C370.30,539.97 370.00,534.34 370.00,527.83 L 370.00 516.00 L 372.90 516.00 C375.31,516.00 376.78,517.25 381.65,523.40 C384.87,527.47 387.84,530.60 388.25,530.34 C388.66,530.09 389.00,526.76 389.00,522.94 C389.00,516.80 389.22,516.00 390.89,516.00 C391.93,516.00 393.05,516.69 393.37,517.53 C394.34,520.04 393.95,539.91 392.93,540.54 C390.92,541.79 388.27,539.75 382.50,532.52 C379.20,528.39 376.16,525.01 375.75,525.01 C375.54,525.01 375.34,525.97 375.21,527.52 C375.27,525.41 375.24,523.91 375.12,523.64 ZM 333.00 745.62 C333.00,746.48 331.90,747.00 330.10,747.00 L 327.20 747.00 L 332.35 734.95 L 337.49 722.91 L 340.77 723.20 C343.87,723.49 344.26,724.00 348.52,733.48 L 348.74 733.96 C352.95,743.32 354.14,745.96 353.40,746.71 C353.11,747.00 352.52,747.00 351.70,747.00 L 351.59 747.00 C349.78,747.00 348.61,746.14 347.49,743.98 C346.04,741.18 345.59,740.99 341.09,741.26 C336.08,741.56 333.00,743.23 333.00,745.62 ZM 490.00 744.00 C489.11,746.14 488.08,747.00 486.38,747.00 C485.07,747.00 484.01,746.66 484.03,746.25 C484.05,745.84 486.21,740.55 488.83,734.50 C493.54,723.62 493.64,723.50 496.96,723.50 C500.28,723.50 500.39,723.64 505.16,734.46 C507.82,740.49 510.00,745.78 510.00,746.21 C510.00,746.65 508.93,747.00 507.62,747.00 C505.92,747.00 504.89,746.14 504.00,744.00 C502.82,741.16 502.45,741.00 497.00,741.00 C491.55,741.00 491.18,741.16 490.00,744.00 ZM 408.00 744.94 C408.00,747.52 407.86,747.55 397.75,747.21 L 389.00 746.92 L 389.00 723.00 L 398.41 723.00 C406.80,723.00 407.80,723.19 407.57,724.75 C407.36,726.18 406.10,726.55 400.60,726.80 C393.94,727.09 393.88,727.12 394.19,729.80 C394.48,732.35 394.83,732.52 400.31,732.80 C405.15,733.05 406.07,733.39 405.80,734.80 C405.55,736.12 404.19,736.57 399.65,736.80 C394.91,737.05 393.94,737.39 394.41,738.63 C394.74,739.48 395.00,740.80 395.00,741.58 C395.00,742.66 396.56,743.00 401.50,743.00 C407.27,743.00 408.00,743.22 408.00,744.94 ZM 504.33 538.95 C502.59,540.32 500.25,541.00 497.27,541.00 C493.52,541.00 492.25,540.45 489.40,537.60 C486.03,534.23 486.00,534.12 486.00,525.10 C486.00,516.06 486.02,516.00 488.50,516.00 C490.95,516.00 491.00,516.15 491.00,523.78 C491.00,533.20 492.47,536.00 497.43,536.00 C499.26,536.00 501.31,535.33 501.99,534.52 C502.66,533.70 503.46,529.20 503.75,524.52 C504.26,516.38 504.39,516.00 506.64,516.00 C508.89,516.00 509.00,516.32 508.99,522.75 C508.99,531.47 507.57,536.41 504.33,538.95 ZM 332.82 538.25 C332.52,540.36 331.96,540.52 323.75,540.79 L 315.00 541.08 L 315.00 516.00 L 324.00 516.00 C332.16,516.00 333.00,516.18 333.00,517.89 C333.00,519.96 329.25,521.42 326.58,520.39 C323.49,519.21 320.00,520.86 320.00,523.52 C320.00,525.83 320.34,526.00 325.07,526.00 C329.36,526.00 330.10,526.27 329.81,527.75 C329.56,529.07 328.31,529.58 324.74,529.80 C320.23,530.09 320.00,530.25 320.00,533.05 L 320.00 536.00 L 326.57 536.00 C332.81,536.00 333.12,536.11 332.82,538.25 ZM 534.55 538.55 C531.43,541.66 524.95,541.88 520.27,539.02 C516.26,536.58 516.70,533.40 520.89,534.51 C522.33,534.90 525.29,535.27 527.48,535.35 C532.74,535.55 533.58,532.82 528.80,531.08 C520.39,528.02 518.51,526.62 518.18,523.16 C517.68,517.99 520.13,516.00 526.96,516.00 C530.32,516.00 533.41,516.59 534.56,517.44 C536.36,518.77 536.38,519.00 534.87,520.54 C533.54,521.88 532.82,521.98 531.07,521.04 C527.82,519.30 523.50,520.09 523.50,522.42 C523.50,524.29 524.96,525.05 531.18,526.41 C537.25,527.75 539.01,534.08 534.55,538.55 ZM 359.18 537.97 C356.70,540.45 355.33,541.00 351.63,541.00 C346.39,541.00 341.31,537.57 342.90,535.10 C343.66,533.92 344.43,533.96 347.95,535.36 C351.09,536.62 352.58,536.76 354.11,535.94 C357.30,534.24 355.92,531.81 350.78,530.09 C345.39,528.27 343.39,526.56 342.52,522.99 C341.45,518.64 344.98,516.00 351.85,516.00 C358.88,516.00 361.74,517.60 359.71,520.39 C358.59,521.92 357.96,522.05 356.24,521.13 C353.37,519.59 349.49,519.71 348.11,521.37 C346.63,523.16 348.18,524.45 353.53,525.88 C358.73,527.27 360.74,528.86 361.55,532.22 C362.08,534.42 361.61,535.54 359.18,537.97 ZM 579.69 538.57 C573.99,543.51 563.42,540.65 560.37,533.35 C558.32,528.43 559.42,522.42 563.04,518.80 C565.49,516.36 566.61,516.00 571.81,516.00 C576.23,516.00 578.39,516.50 580.14,517.94 C582.34,519.74 582.39,519.99 580.84,521.56 C579.31,523.12 579.01,523.12 576.87,521.62 C573.68,519.38 570.58,519.59 567.52,522.25 C563.76,525.52 563.44,529.18 566.58,532.92 C569.41,536.28 572.94,536.90 577.48,534.83 C579.48,533.92 580.33,533.93 581.28,534.90 C582.24,535.88 581.91,536.65 579.69,538.57 ZM 318.76 745.42 C308.95,751.85 295.39,742.43 298.95,731.66 C301.63,723.53 311.80,719.55 318.75,723.93 C322.47,726.26 322.80,727.50 320.11,728.94 C318.70,729.70 317.89,729.58 316.98,728.48 C315.21,726.35 309.70,726.66 306.63,729.07 C303.04,731.90 303.01,737.10 306.57,740.66 C308.77,742.86 309.68,743.13 312.82,742.53 C318.73,741.40 320.27,741.43 320.71,742.69 C320.94,743.34 320.06,744.57 318.76,745.42 ZM 261.80 535.79 C261.59,539.07 261.03,540.57 259.95,540.78 C259.10,540.94 258.09,540.75 257.70,540.37 C257.32,539.98 257.00,534.34 257.00,527.83 L 257.00 516.00 L 266.07 516.00 C274.90,516.00 275.13,516.06 274.82,518.25 C274.53,520.27 273.86,520.53 268.25,520.80 C262.36,521.08 262.00,521.24 262.00,523.55 C262.00,525.85 262.33,526.00 267.49,526.00 C272.62,526.00 272.97,526.15 272.65,528.25 C272.36,530.20 271.62,530.54 267.21,530.80 L 262.11 531.10 ZM 410.20 533.97 C417.35,540.63 427.46,529.37 420.55,522.45 C416.55,518.46 410.94,519.27 408.38,524.23 C406.55,527.77 407.19,531.16 410.20,533.97 ZM 458.67 742.33 C460.08,743.74 465.85,742.91 468.37,740.93 C470.37,739.35 471.00,737.96 471.00,735.12 C471.00,729.63 469.21,727.82 463.17,727.24 L 458.00 726.75 L 458.00 734.21 C458.00,738.31 458.30,741.97 458.67,742.33 ZM 380.00 745.05 C380.00,746.84 379.26,747.00 371.00,747.00 L 362.00 747.00 L 362.00 723.00 L 364.46 723.00 C366.89,723.00 366.93,723.13 367.21,732.75 L 367.50 742.50 L 373.75 742.80 C379.18,743.06 380.00,743.35 380.00,745.05 ZM 545.22 526.94 L 545.50 515.50 L 545.41 539.50 L 545.73 527.85 C546.05,516.58 546.13,516.22 548.16,516.75 C550.12,517.26 550.23,517.80 549.73,524.41 C549.23,530.99 549.77,541.00 550.63,541.00 C550.83,541.00 551.00,535.12 551.00,527.93 L 551.00 541.00 L 548.47 541.00 C547.08,541.00 545.71,540.41 545.43,539.69 C545.16,538.97 545.06,533.23 545.22,526.94 ZM 524.00 731.00 C524.00,734.71 524.20,735.00 526.78,735.00 C530.28,735.00 534.00,732.45 534.00,730.05 C534.00,727.88 532.10,727.00 527.42,727.00 C524.10,727.00 524.00,727.11 524.00,731.00 ZM 289.39 526.57 C290.06,528.32 296.11,528.49 297.80,526.80 C300.96,523.64 297.52,519.58 292.20,520.19 C289.44,520.51 288.17,523.40 289.39,526.57 ZM 494.00 735.55 C494.00,736.99 499.00,737.67 500.27,736.40 C500.96,735.71 497.97,729.00 496.98,729.00 C496.12,729.00 494.00,733.67 494.00,735.55 ZM 337.65 736.24 C338.29,737.28 342.76,737.20 343.41,736.15 C344.09,735.05 341.82,729.00 340.73,729.00 C339.68,729.00 337.02,735.23 337.65,736.24 Z" fill="rgb(216,103,34)"/>
<path d="M 0.00 627.00 L 0.00 0.00 L 418.00 0.00 L 836.00 0.00 L 836.00 627.00 L 836.00 1254.00 L 418.00 1254.00 L 0.00 1254.00 L 0.00 627.00 ZM 617.50 815.49 C635.07,811.78 647.29,801.53 655.06,784.00 L 657.50 778.50 L 657.76 592.19 C658.06,384.97 658.57,401.09 651.21,386.00 C646.18,375.67 635.27,364.72 624.98,359.65 C614.07,354.29 606.59,353.04 585.25,353.02 L 567.00 353.00 L 567.00 375.99 C567.00,398.52 566.95,399.11 564.35,405.59 C560.76,414.57 552.94,422.95 544.14,427.25 C538.05,430.23 536.72,430.50 528.00,430.47 C519.28,430.45 517.93,430.17 511.56,427.08 C503.03,422.95 495.77,415.88 492.19,408.24 C489.53,402.56 489.50,402.23 489.20,377.75 L 488.90 353.00 L 417.70 353.00 L 346.50 353.00 L 346.80 368.71 C347.21,389.98 345.91,402.28 342.55,408.90 C335.25,423.30 320.50,431.88 304.92,430.76 C292.87,429.90 279.57,421.78 273.65,411.66 C268.76,403.30 268.00,398.35 268.00,374.82 L 268.00 353.00 L 250.57 353.00 C238.71,353.00 230.79,353.49 225.82,354.54 C204.80,358.96 188.85,373.66 180.83,396.00 L 178.50 402.50 L 178.22 584.50 C178.04,706.38 178.29,768.81 178.98,773.50 C181.92,793.34 197.16,810.14 217.00,815.41 C225.33,817.62 607.03,817.70 617.50,815.49 ZM 316.78 415.45 C321.47,413.49 326.55,408.67 329.34,403.50 C331.44,399.61 331.50,398.53 331.50,362.50 C331.50,326.50 331.44,325.39 329.34,321.50 C326.59,316.40 322.50,312.52 317.78,310.55 C313.46,308.75 304.24,308.53 298.50,310.11 C293.37,311.51 285.53,319.43 284.07,324.68 C282.60,329.97 282.64,393.68 284.12,399.55 C285.51,405.07 291.99,412.64 297.46,415.12 C302.47,417.40 311.74,417.55 316.78,415.45 ZM 541.17 413.45 C546.11,409.98 549.54,405.32 550.98,400.12 C552.35,395.20 552.31,328.67 550.94,323.72 C548.51,314.96 539.53,309.00 528.78,309.00 C517.51,309.00 510.11,313.02 506.09,321.31 C504.09,325.45 504.00,327.16 504.00,361.67 C504.00,386.30 504.37,398.78 505.16,401.10 C507.00,406.52 511.63,411.63 517.27,414.49 C521.77,416.76 523.51,417.08 529.69,416.80 C535.76,416.52 537.54,416.00 541.17,413.45 ZM 237.00 796.98 C221.29,796.52 219.06,796.23 215.20,794.19 C208.65,790.71 203.69,785.71 200.44,779.31 L 197.50 773.50 L 197.24 627.25 L 196.97 481.00 L 418.50 481.00 L 640.03 481.00 L 639.77 626.85 L 639.50 772.70 L 636.00 779.56 C633.47,784.53 631.12,787.48 627.50,790.23 C617.98,797.48 632.05,796.97 433.49,797.25 C335.05,797.39 246.62,797.27 237.00,796.98 ZM 318.76 745.42 C320.06,744.57 320.94,743.34 320.71,742.69 C320.27,741.43 318.73,741.40 312.82,742.53 C309.68,743.13 308.77,742.86 306.57,740.66 C303.01,737.10 303.04,731.90 306.63,729.07 C309.70,726.66 315.21,726.35 316.98,728.48 C317.89,729.58 318.70,729.70 320.11,728.94 C322.80,727.50 322.47,726.26 318.75,723.93 C311.80,719.55 301.63,723.53 298.95,731.66 C295.39,742.43 308.95,751.85 318.76,745.42 ZM 408.00 744.94 C408.00,743.22 407.27,743.00 401.50,743.00 C396.56,743.00 395.00,742.66 395.00,741.58 C395.00,740.80 394.74,739.48 394.41,738.63 C393.94,737.39 394.91,737.05 399.65,736.80 C404.19,736.57 405.55,736.12 405.80,734.80 C406.07,733.39 405.15,733.05 400.31,732.80 C394.83,732.52 394.48,732.35 394.19,729.80 C393.88,727.12 393.94,727.09 400.60,726.80 C406.10,726.55 407.36,726.18 407.57,724.75 C407.80,723.19 406.80,723.00 398.41,723.00 L 389.00 723.00 L 389.00 734.96 L 389.00 746.92 L 397.75 747.21 C407.86,747.55 408.00,747.52 408.00,744.94 ZM 333.00 745.62 C333.00,743.23 336.08,741.56 341.09,741.26 C345.59,740.99 346.04,741.18 347.49,743.98 C348.61,746.14 349.78,747.00 351.59,747.00 C354.64,747.00 354.68,747.16 348.52,733.48 C344.26,724.00 343.87,723.49 340.77,723.20 L 337.49 722.91 L 332.35 734.95 L 327.20 747.00 L 330.10 747.00 C331.90,747.00 333.00,746.48 333.00,745.62 ZM 380.00 745.05 C380.00,743.35 379.18,743.06 373.75,742.80 L 367.50 742.50 L 367.21 732.75 C366.93,723.13 366.89,723.00 364.46,723.00 L 362.00 723.00 L 362.00 735.00 L 362.00 747.00 L 371.00 747.00 C379.26,747.00 380.00,746.84 380.00,745.05 ZM 423.79 739.25 C423.96,735.26 424.46,732.00 424.91,732.00 C425.36,732.00 428.52,735.38 431.93,739.50 C436.55,745.07 438.76,747.00 440.57,747.00 L 443.00 747.00 L 443.00 735.00 L 443.00 723.00 L 440.25 723.00 L 437.50 723.00 L 437.83 730.00 C438.03,734.08 437.76,737.00 437.20,737.00 C436.66,737.00 433.65,733.85 430.50,730.00 C425.81,724.27 424.25,723.00 421.89,723.00 L 419.00 723.00 L 419.00 735.07 C419.00,747.01 419.02,747.14 421.25,746.82 C423.31,746.53 423.52,745.90 423.79,739.25 ZM 471.13 745.43 C476.32,742.75 478.46,734.73 475.51,729.01 C473.00,724.16 470.36,723.00 461.88,723.00 C455.81,723.00 454.09,723.33 453.61,724.58 C453.27,725.45 453.00,730.14 453.00,735.00 C453.00,739.86 453.27,744.55 453.61,745.42 C454.45,747.61 466.90,747.62 471.13,745.43 ZM 490.00 744.00 C491.18,741.16 491.55,741.00 497.00,741.00 C502.45,741.00 502.82,741.16 504.00,744.00 C504.89,746.14 505.92,747.00 507.62,747.00 C508.93,747.00 510.00,746.65 510.00,746.21 C510.00,745.78 507.82,740.49 505.16,734.46 C500.39,723.64 500.28,723.50 496.96,723.50 C493.64,723.50 493.54,723.62 488.83,734.50 C486.21,740.55 484.05,745.84 484.03,746.25 C484.01,746.66 485.07,747.00 486.38,747.00 C488.08,747.00 489.11,746.14 490.00,744.00 ZM 524.00 743.00 C524.00,739.51 524.29,739.00 526.25,739.02 C527.72,739.04 529.47,740.42 531.31,743.02 C533.53,746.15 534.77,747.00 537.12,747.00 L 540.11 747.00 L 538.31 743.92 C537.31,742.23 535.94,740.38 535.26,739.81 C534.30,739.00 534.58,738.10 536.51,735.81 C539.35,732.43 539.71,728.45 537.44,725.22 C536.04,723.22 535.03,723.00 527.44,723.00 L 519.00 723.00 L 519.00 735.00 L 519.00 747.00 L 521.50 747.00 C523.75,747.00 524.00,746.60 524.00,743.00 ZM 411.71 676.43 C416.70,673.50 420.89,668.12 427.59,656.00 C433.88,644.62 438.41,638.53 442.42,636.05 C449.33,631.78 459.87,632.49 466.01,637.66 C469.57,640.66 474.98,648.42 480.53,658.50 C485.64,667.77 489.46,672.45 494.80,675.99 C505.27,682.93 517.96,679.76 525.72,668.27 C528.59,664.04 551.93,622.68 551.62,622.38 C551.55,622.32 548.72,622.74 545.31,623.31 C540.02,624.21 538.55,624.10 535.17,622.58 C529.26,619.91 523.77,613.61 518.11,603.00 C510.99,589.66 506.52,584.14 500.13,580.80 C493.26,577.21 486.54,577.07 479.46,580.37 C473.02,583.37 467.71,589.43 461.48,600.93 C455.97,611.10 449.39,619.23 444.73,621.64 C440.79,623.68 433.22,623.68 429.28,621.64 C424.13,618.98 420.27,614.33 413.01,602.01 C409.18,595.52 404.86,588.80 403.42,587.09 C399.28,582.17 392.79,578.88 386.01,578.27 C373.80,577.16 366.34,582.77 356.50,600.47 C349.67,612.74 344.06,619.66 339.33,621.64 C335.10,623.40 328.62,623.38 325.20,621.59 C321.67,619.73 316.66,614.36 314.53,610.14 C313.59,608.28 312.46,607.16 312.02,607.64 C310.94,608.78 298.25,631.87 288.66,650.13 L 280.98 664.75 L 284.31 669.58 C290.50,678.57 300.28,681.37 308.55,676.52 C313.09,673.87 317.01,668.53 324.03,655.50 C332.71,639.37 337.56,634.57 346.37,633.36 C356.84,631.93 363.24,637.20 373.96,656.09 C377.50,662.33 381.97,669.17 383.88,671.29 C391.84,680.09 402.19,682.01 411.71,676.43 ZM 261.80 535.79 L 262.11 531.10 L 267.21 530.80 C271.62,530.54 272.36,530.20 272.65,528.25 C272.97,526.15 272.62,526.00 267.49,526.00 C262.33,526.00 262.00,525.85 262.00,523.55 C262.00,521.24 262.36,521.08 268.25,520.80 C273.86,520.53 274.53,520.27 274.82,518.25 C275.13,516.06 274.90,516.00 266.07,516.00 L 257.00 516.00 L 257.00 527.83 C257.00,534.34 257.32,539.98 257.70,540.37 C258.09,540.75 259.10,540.94 259.95,540.78 C261.03,540.57 261.59,539.07 261.80,535.79 ZM 289.00 537.00 C289.00,533.21 289.16,533.00 292.03,533.00 C294.44,533.00 295.49,533.72 297.14,536.51 C299.17,539.95 302.84,541.83 304.97,540.52 C305.66,540.09 304.92,538.42 302.94,535.92 L 299.83 531.99 L 302.50 528.82 C304.60,526.33 305.05,524.97 304.59,522.57 C303.59,517.42 300.85,516.00 291.89,516.00 L 284.00 516.00 L 284.00 527.83 C284.00,534.34 284.30,539.97 284.67,540.33 C285.03,540.70 286.16,541.00 287.17,541.00 C288.64,541.00 289.00,540.21 289.00,537.00 ZM 332.82 538.25 C333.12,536.11 332.81,536.00 326.57,536.00 L 320.00 536.00 L 320.00 533.05 C320.00,530.25 320.23,530.09 324.74,529.80 C328.31,529.58 329.56,529.07 329.81,527.75 C330.10,526.27 329.36,526.00 325.07,526.00 C320.34,526.00 320.00,525.83 320.00,523.52 C320.00,520.86 323.49,519.21 326.58,520.39 C329.25,521.42 333.00,519.96 333.00,517.89 C333.00,516.18 332.16,516.00 324.00,516.00 L 315.00 516.00 L 315.00 528.54 L 315.00 541.08 L 323.75 540.79 C331.96,540.52 332.52,540.36 332.82,538.25 ZM 359.18 537.97 C361.61,535.54 362.08,534.42 361.55,532.22 C360.74,528.86 358.73,527.27 353.53,525.88 C348.18,524.45 346.63,523.16 348.11,521.37 C349.49,519.71 353.37,519.59 356.24,521.13 C357.96,522.05 358.59,521.92 359.71,520.39 C361.74,517.60 358.88,516.00 351.85,516.00 C344.98,516.00 341.45,518.64 342.52,522.99 C343.39,526.56 345.39,528.27 350.78,530.09 C355.92,531.81 357.30,534.24 354.11,535.94 C352.58,536.76 351.09,536.62 347.95,535.36 C344.43,533.96 343.66,533.92 342.90,535.10 C341.31,537.57 346.39,541.00 351.63,541.00 C355.33,541.00 356.70,540.45 359.18,537.97 ZM 375.00 533.00 C375.00,528.60 375.34,525.00 375.75,525.01 C376.16,525.01 379.20,528.39 382.50,532.52 C388.27,539.75 390.92,541.79 392.93,540.54 C393.95,539.91 394.34,520.04 393.37,517.53 C393.05,516.69 391.93,516.00 390.89,516.00 C389.22,516.00 389.00,516.80 389.00,522.94 C389.00,526.76 388.66,530.09 388.25,530.34 C387.84,530.60 384.87,527.47 381.65,523.40 C376.78,517.25 375.31,516.00 372.90,516.00 L 370.00 516.00 L 370.00 527.83 C370.00,534.34 370.30,539.97 370.67,540.33 C371.03,540.70 372.16,541.00 373.17,541.00 C374.79,541.00 375.00,540.09 375.00,533.00 ZM 420.97 539.72 C424.52,537.93 428.00,532.27 428.00,528.30 C428.00,524.19 425.81,519.68 422.78,517.56 C419.76,515.44 410.18,515.48 407.12,517.63 C404.46,519.49 402.00,524.72 402.00,528.52 C402.00,537.38 412.88,543.81 420.97,539.72 ZM 454.64 533.18 C454.71,529.17 454.99,525.67 455.26,525.41 C455.52,525.14 457.20,527.19 458.98,529.96 C460.75,532.73 462.57,535.00 463.01,535.00 C463.45,535.00 465.10,532.98 466.66,530.50 C468.22,528.03 469.82,526.00 470.21,526.00 C470.59,526.00 471.04,529.26 471.21,533.25 C471.48,539.90 471.69,540.53 473.75,540.82 C475.98,541.14 476.00,541.03 476.00,528.57 C476.00,516.08 475.99,516.00 473.67,516.00 C471.07,516.00 468.04,518.90 465.59,523.75 C464.69,525.54 463.62,526.99 463.22,526.97 C462.83,526.96 461.01,524.48 459.19,521.47 C456.38,516.84 455.43,516.00 452.94,516.00 L 450.00 516.00 L 450.00 527.83 C450.00,534.34 450.32,539.98 450.70,540.37 C451.09,540.75 452.10,540.93 452.95,540.77 C454.16,540.53 454.53,538.89 454.64,533.18 ZM 504.33 538.95 C507.57,536.41 508.99,531.47 508.99,522.75 C509.00,516.32 508.89,516.00 506.64,516.00 C504.39,516.00 504.26,516.38 503.75,524.52 C503.46,529.20 502.66,533.70 501.99,534.52 C501.31,535.33 499.26,536.00 497.43,536.00 C492.47,536.00 491.00,533.20 491.00,523.78 C491.00,516.15 490.95,516.00 488.50,516.00 C486.02,516.00 486.00,516.06 486.00,525.10 C486.00,534.12 486.03,534.23 489.40,537.60 C492.25,540.45 493.52,541.00 497.27,541.00 C500.25,541.00 502.59,540.32 504.33,538.95 ZM 534.55 538.55 C539.01,534.08 537.25,527.75 531.18,526.41 C524.96,525.05 523.50,524.29 523.50,522.42 C523.50,520.09 527.82,519.30 531.07,521.04 C532.82,521.98 533.54,521.88 534.87,520.54 C536.38,519.00 536.36,518.77 534.56,517.44 C533.41,516.59 530.32,516.00 526.96,516.00 C520.13,516.00 517.68,517.99 518.18,523.16 C518.51,526.62 520.39,528.02 528.80,531.08 C533.58,532.82 532.74,535.55 527.48,535.35 C525.29,535.27 522.33,534.90 520.89,534.51 C516.70,533.40 516.26,536.58 520.27,539.02 C524.95,541.88 531.43,541.66 534.55,538.55 ZM 551.00 527.93 L 551.00 514.87 L 548.25 515.18 L 545.50 515.50 L 545.22 526.94 C545.06,533.23 545.16,538.97 545.43,539.69 C545.71,540.41 547.08,541.00 548.47,541.00 L 551.00 541.00 L 551.00 527.93 ZM 579.69 538.57 C581.91,536.65 582.24,535.88 581.28,534.90 C580.33,533.93 579.48,533.92 577.48,534.83 C572.94,536.90 569.41,536.28 566.58,532.92 C563.44,529.18 563.76,525.52 567.52,522.25 C570.58,519.59 573.68,519.38 576.87,521.62 C579.01,523.12 579.31,523.12 580.84,521.56 C582.39,519.99 582.34,519.74 580.14,517.94 C578.39,516.50 576.23,516.00 571.81,516.00 C566.61,516.00 565.49,516.36 563.04,518.80 C559.42,522.42 558.32,528.43 560.37,533.35 C563.42,540.65 573.99,543.51 579.69,538.57 ZM 337.65 736.24 C337.02,735.23 339.68,729.00 340.73,729.00 C341.82,729.00 344.09,735.05 343.41,736.15 C342.76,737.20 338.29,737.28 337.65,736.24 ZM 458.67 742.33 C458.30,741.97 458.00,738.31 458.00,734.21 L 458.00 726.75 L 463.17 727.24 C469.21,727.82 471.00,729.63 471.00,735.12 C471.00,737.96 470.37,739.35 468.37,740.93 C465.85,742.91 460.08,743.74 458.67,742.33 ZM 494.00 735.55 C494.00,733.67 496.12,729.00 496.98,729.00 C497.97,729.00 500.96,735.71 500.27,736.40 C499.00,737.67 494.00,736.99 494.00,735.55 ZM 524.00 731.00 C524.00,727.11 524.10,727.00 527.42,727.00 C532.10,727.00 534.00,727.88 534.00,730.05 C534.00,732.45 530.28,735.00 526.78,735.00 C524.20,735.00 524.00,734.71 524.00,731.00 ZM 289.39 526.57 C288.17,523.40 289.44,520.51 292.20,520.19 C297.52,519.58 300.96,523.64 297.80,526.80 C296.11,528.49 290.06,528.32 289.39,526.57 ZM 410.20 533.97 C407.19,531.16 406.55,527.77 408.38,524.23 C410.94,519.27 416.55,518.46 420.55,522.45 C427.46,529.37 417.35,540.63 410.20,533.97 Z" fill="rgb(254,254,254)"/>
</g>
</svg>